<svg width="29" height="28" viewBox="0 0 29 28" fill="none" xmlns="http://www.w3.org/2000/svg">
<g id="Group 42">
<path id="Vector" d="M5.8117 5.85589C3.8525 8.06457 2.75667 10.9091 2.72347 13.8651C2.64599 20.625 8.1251 26.1691 14.8218 26.1914C21.5185 26.2025 26.9201 20.7366 26.9201 13.999C26.9201 7.36181 21.6513 1.95165 15.0985 1.80664C15.0653 1.80664 15.021 1.80664 14.9878 1.82895C14.9546 1.84011 14.9214 1.86242 14.8993 1.88473C14.8771 1.90704 14.855 1.9405 14.8329 1.97396C14.8218 2.00743 14.8107 2.04089 14.8107 2.08551V7.39527" stroke="white" stroke-width="3.5" stroke-linecap="round" stroke-linejoin="round"/>
<path id="Vector_2" d="M13.4062 15.4266L8.42521 8.25393C8.34773 8.15353 8.32559 8.03083 8.33666 7.90812C8.34773 7.78542 8.392 7.67387 8.48055 7.58463C8.5691 7.49539 8.67979 7.45077 8.80155 7.43961C8.91224 7.42846 9.034 7.46192 9.13362 7.52885L16.2509 12.5486C16.6826 12.8609 16.9815 13.3406 17.07 13.876C17.1586 14.4115 17.0368 14.9581 16.7269 15.4042C16.417 15.8504 15.9521 16.1516 15.4208 16.252C14.8895 16.3524 14.3471 16.2297 13.9043 15.9285C13.7162 15.7947 13.539 15.6273 13.4062 15.4266Z" fill="white"/>
</g>
</svg>
